<?xml version="1.0" encoding="UTF-8" standalone="no"?>
<!-- Created with Inkscape (http://www.inkscape.org/) -->

<svg
   width="793.70081"
   height="450"
   viewBox="0 0 210 119.0625"
   version="1.1"
   id="svg1"
   inkscape:version="1.3 (0e150ed6c4, 2023-07-21)"
   sodipodi:docname="preview1.svg"
   xmlns:inkscape="http://www.inkscape.org/namespaces/inkscape"
   xmlns:sodipodi="http://sodipodi.sourceforge.net/DTD/sodipodi-0.dtd"
   xmlns:xlink="http://www.w3.org/1999/xlink"
   xmlns="http://www.w3.org/2000/svg"
   xmlns:svg="http://www.w3.org/2000/svg">
  <sodipodi:namedview
     id="namedview1"
     pagecolor="#ffffff"
     bordercolor="#000000"
     borderopacity="0.25"
     inkscape:showpageshadow="2"
     inkscape:pageopacity="0.0"
     inkscape:pagecheckerboard="0"
     inkscape:deskcolor="#d1d1d1"
     inkscape:document-units="mm"
     inkscape:zoom="1"
     inkscape:cx="396"
     inkscape:cy="399.5"
     inkscape:window-width="1920"
     inkscape:window-height="1009"
     inkscape:window-x="-8"
     inkscape:window-y="-8"
     inkscape:window-maximized="1"
     inkscape:current-layer="layer1" />
  <defs
     id="defs1">
    <linearGradient
       id="SVGID_1_"
       gradientUnits="userSpaceOnUse"
       x1="205.32381"
       y1="120.5383"
       x2="483.08841"
       y2="120.5383"
       gradientTransform="matrix(0.26458333,0,0,0.26458333,40.417073,75.093806)">&#10;				<stop
   offset="0"
   style="stop-color:#4591ED"
   id="stop3" />
&#10;				<stop
   offset="1"
   style="stop-color:#00C9FF"
   id="stop4" />
&#10;			</linearGradient>
    <linearGradient
       id="symbol_1_"
       gradientUnits="userSpaceOnUse"
       x1="205.32381"
       y1="125"
       x2="483.08841"
       y2="125"
       gradientTransform="matrix(0.21719486,0,0,0.21719486,55.662849,3.4805137)">&#10;		<stop
   offset="0"
   style="stop-color:#4591ED"
   id="stop1" />
&#10;		<stop
   offset="1"
   style="stop-color:#00C9FF"
   id="stop2" />
&#10;	</linearGradient>
    <linearGradient
       id="SVGID_2_"
       gradientUnits="userSpaceOnUse"
       x1="205.32381"
       y1="127.9909"
       x2="483.08841"
       y2="127.9909"
       gradientTransform="matrix(0.21719486,0,0,0.21719486,58.961571,2.5808627)">&#10;				<stop
   offset="0"
   style="stop-color:#4591ED"
   id="stop5" />
&#10;				<stop
   offset="1"
   style="stop-color:#00C9FF"
   id="stop6" />
&#10;			</linearGradient>
    <linearGradient
       id="SVGID_3_"
       gradientUnits="userSpaceOnUse"
       x1="205.32381"
       y1="127.9185"
       x2="483.08841"
       y2="127.9185"
       gradientTransform="matrix(0.21719486,0,0,0.21719486,58.961571,2.5808627)">&#10;				<stop
   offset="0"
   style="stop-color:#4591ED"
   id="stop7" />
&#10;				<stop
   offset="1"
   style="stop-color:#00C9FF"
   id="stop8" />
&#10;			</linearGradient>
    <linearGradient
       id="SVGID_4_"
       gradientUnits="userSpaceOnUse"
       x1="205.32381"
       y1="128.4249"
       x2="483.08841"
       y2="128.4249"
       gradientTransform="matrix(0.21719486,0,0,0.21719486,58.961571,2.5808627)">&#10;				<stop
   offset="0"
   style="stop-color:#4591ED"
   id="stop9" />
&#10;				<stop
   offset="1"
   style="stop-color:#00C9FF"
   id="stop10" />
&#10;			</linearGradient>
    <linearGradient
       id="SVGID_5_"
       gradientUnits="userSpaceOnUse"
       x1="205.32381"
       y1="128.0632"
       x2="483.08841"
       y2="128.0632"
       gradientTransform="matrix(0.21719486,0,0,0.21719486,58.961571,2.5808627)">&#10;				<stop
   offset="0"
   style="stop-color:#4591ED"
   id="stop11" />
&#10;				<stop
   offset="1"
   style="stop-color:#00C9FF"
   id="stop12" />
&#10;			</linearGradient>
    <linearGradient
       id="SVGID_6_"
       gradientUnits="userSpaceOnUse"
       x1="205.32381"
       y1="120.9"
       x2="483.08841"
       y2="120.9">&#10;				<stop
   offset="0"
   style="stop-color:#4591ED"
   id="stop13" />
&#10;				<stop
   offset="1"
   style="stop-color:#00C9FF"
   id="stop14" />
&#10;			</linearGradient>
    <linearGradient
       inkscape:collect="always"
       xlink:href="#SVGID_6_"
       id="linearGradient1"
       gradientUnits="userSpaceOnUse"
       x1="205.32381"
       y1="120.9"
       x2="483.08841"
       y2="120.9"
       gradientTransform="matrix(0.21719486,0,0,0.21719486,58.961571,2.5808627)" />
    <linearGradient
       inkscape:collect="always"
       xlink:href="#SVGID_6_"
       id="linearGradient2"
       gradientUnits="userSpaceOnUse"
       x1="205.32381"
       y1="120.9"
       x2="483.08841"
       y2="120.9"
       gradientTransform="matrix(0.21719486,0,0,0.21719486,58.961571,2.5808627)" />
    <linearGradient
       inkscape:collect="always"
       xlink:href="#SVGID_1_"
       id="linearGradient3"
       gradientUnits="userSpaceOnUse"
       gradientTransform="matrix(0.07000434,0,0,0.07000434,108.58952,172.26857)"
       x1="205.32381"
       y1="120.5383"
       x2="483.08841"
       y2="120.5383" />
    <linearGradient
       inkscape:collect="always"
       xlink:href="#SVGID_1_"
       id="linearGradient4"
       gradientUnits="userSpaceOnUse"
       gradientTransform="matrix(0.05746614,0,0,0.05746614,64.89743,105.2525)"
       x1="205.32381"
       y1="120.5383"
       x2="483.08841"
       y2="120.5383" />
    <linearGradient
       inkscape:collect="always"
       xlink:href="#SVGID_1_"
       id="linearGradient5"
       gradientUnits="userSpaceOnUse"
       gradientTransform="matrix(0.21719486,0,0,0.21719486,58.961571,2.5808627)"
       x1="205.32381"
       y1="120.5383"
       x2="483.08841"
       y2="120.5383" />
    <linearGradient
       id="SVGID_1_-1"
       gradientUnits="userSpaceOnUse"
       x1="71.25"
       y1="10.4893"
       x2="71.25"
       y2="113.3415"
       gradientTransform="matrix(0.21719486,0,0,-0.21719486,83.999305,110.88396)">&#10;	<stop
   offset="0"
   style="stop-color:#FCEE1F"
   id="stop7-7" />
&#10;	<stop
   offset="1"
   style="stop-color:#F15B2A"
   id="stop8-4" />
&#10;</linearGradient>
  </defs>
  <g
     inkscape:label="Calque 1"
     inkscape:groupmode="layer"
     id="layer1">
    <path
       id="symbol_2_"
       class="st0"
       d="m 108.3326,32.432586 -1.65067,-7.210865 c -0.0869,-0.39095 -0.45612,-0.781901 -0.84707,-0.890497 l -7.580098,-2.323989 c -0.108598,-0.02172 -0.217195,-0.04344 -0.325792,-0.04344 -0.325793,0 -0.673305,0.130316 -0.86878,0.325792 l -5.429872,5.038919 c -0.282353,0.260634 -0.456109,0.781901 -0.36923,1.172852 l 1.759278,7.710419 c 0.08688,0.390951 0.456109,0.781902 0.84706,0.890498 l 7.080554,2.171952 c 0.1086,0.02175 0.21719,0.04343 0.32579,0.04343 0.32579,0 0.6733,-0.130317 0.86878,-0.325797 l 5.7991,-5.386434 c 0.3258,-0.260633 0.47783,-0.781901 0.39095,-1.172852 z m -9.295936,-8.731231 5.190966,1.585521 c 0.19547,0.06518 0.19547,0.152038 0,0.195479 l -2.73666,0.629864 c -0.2172,0.04342 -0.49955,-0.04342 -0.62987,-0.195479 l -1.911315,-2.063349 c -0.152036,-0.130317 -0.108597,-0.195475 0.08688,-0.152036 z m 3.236206,9.317661 c 0.0434,0.217192 -0.0869,0.325788 -0.28236,0.260634 l -5.603624,-1.715841 c -0.195475,-0.06518 -0.238915,-0.238913 -0.08688,-0.36923 l 4.300464,-3.996383 c 0.15203,-0.152038 0.32579,-0.08688 0.36923,0.108596 z m -9.230785,-5.08236 4.561092,-4.235301 c 0.152037,-0.152036 0.390951,-0.130317 0.542987,0.02172 l 2.280546,2.454306 c 0.15204,0.152029 0.13032,0.39095 -0.0217,0.54298 l -4.561093,4.235304 c -0.152036,0.152038 -0.39095,0.130317 -0.542986,-0.02175 l -2.280547,-2.4543 c -0.130316,-0.152038 -0.130316,-0.390951 0.02172,-0.542989 z m 1.107694,6.733038 -1.216291,-5.277831 c -0.04344,-0.2172 0.02172,-0.238913 0.173756,-0.08688 l 1.911314,2.063359 c 0.152037,0.152029 0.217196,0.456105 0.152037,0.651584 l -0.825341,2.671493 c -0.04344,0.173758 -0.152036,0.173758 -0.195475,-0.02175 z m 6.667881,3.06245 -5.929419,-1.824435 c -0.195475,-0.06518 -0.325792,-0.282355 -0.260633,-0.477834 l 0.977376,-3.214482 c 0.06515,-0.195471 0.282353,-0.325788 0.477829,-0.260633 l 5.929417,1.824436 c 0.19548,0.06518 0.3258,0.282355 0.26064,0.477826 l -0.97738,3.21449 c -0.0652,0.217192 -0.28235,0.325786 -0.47783,0.260632 z m 5.27784,-4.322177 -3.97467,3.692307 c -0.15204,0.152038 -0.23891,0.08688 -0.17376,-0.108596 l 0.82534,-2.671493 c 0.0652,-0.19548 0.28236,-0.412672 0.49956,-0.456113 l 2.73665,-0.629864 c 0.19547,-0.04342 0.23891,0.04342 0.0869,0.173759 z m 0.43439,-0.781902 -3.27964,0.73846 c -0.2172,0.04342 -0.41268,-0.08687 -0.45612,-0.282355 l -1.39004,-6.059733 c -0.0434,-0.217192 0.0869,-0.412671 0.28235,-0.456113 l 3.27965,-0.73846 c 0.21719,-0.04342 0.41267,0.08688 0.4561,0.282355 l 1.39005,6.059733 c 0.0434,0.195479 -0.0869,0.412671 -0.28235,0.456113 z"
       style="fill:url(#symbol_1_);stroke-width:0.217195" />
    <path
       class="st1"
       d="m 118.36436,26.776371 1.93304,-0.260634 -1.36833,7.775573 h -1.8896 z m 0.56471,-3.279644 1.93304,-0.260634 -0.36923,2.128512 -1.93304,0.282355 z"
       id="path4"
       style="fill:url(#linearGradient5);stroke-width:0.217195" />
    <path
       class="st2"
       d="m 126.33542,28.839721 c 0.0217,-0.08688 0.0217,-0.173759 0.0217,-0.195472 0,-0.195479 -0.0869,-0.325796 -0.39095,-0.325796 -0.49955,0 -1.5638,0.477826 -2.28054,0.890497 l -0.8905,5.08236 h -1.8896 l 1.32489,-7.493218 1.62896,-0.282355 -0.0218,0.933939 c 0.9991,-0.542988 2.19366,-0.95566 3.10588,-0.95566 1.04254,0 1.39005,0.695026 1.39005,1.520361 0,0.304076 -0.0217,0.499555 -0.0869,0.760189 l -0.97737,5.538465 h -1.8896 z"
       id="path6"
       style="fill:url(#SVGID_2_);stroke-width:0.217195" />
    <path
       class="st3"
       d="m 134.41507,28.166415 h -1.75928 l -1.15114,6.472413 c -0.21719,1.238006 -0.67329,2.019908 -1.6724,2.888683 l -1.21628,-1.129409 c 0.60814,-0.58643 0.8905,-1.107698 1.02081,-1.933033 l 1.10769,-6.298654 h -1.17285 l 0.26063,-1.542082 h 1.17286 l 0.19548,-1.10769 c 0.28235,-1.628965 0.93393,-2.345704 2.86697,-2.345704 0.62986,0 1.4552,0.08688 2.41086,0.304067 l 1.93303,-0.260634 -1.95475,11.055217 h -1.8896 l 1.65068,-9.361097 c -0.76018,-0.152038 -1.52036,-0.238913 -2.1285,-0.238913 -0.65159,0 -0.91222,0.217192 -0.9991,0.760181 l -0.19548,1.172852 h 1.91132 z"
       id="path8"
       style="fill:url(#SVGID_3_);stroke-width:0.217195" />
    <path
       class="st4"
       d="m 140.64856,32.075923 c -0.0218,0.108596 -0.0218,0.173758 -0.0218,0.195479 0,0.195471 0.0869,0.325788 0.39095,0.325788 0.49955,0 1.56381,-0.477826 2.28055,-0.890497 l 0.86878,-4.952043 1.93303,-0.260634 -1.3466,7.797294 h -1.60724 l 0.0217,-0.803622 c -0.99909,0.542988 -2.19367,0.95566 -3.10588,0.95566 -1.04254,0 -1.39006,-0.695026 -1.39006,-1.520361 0,-0.304076 0.0218,-0.499547 0.0869,-0.760181 l 0.93394,-5.386435 1.93303,-0.260634 z"
       id="path10"
       style="fill:url(#SVGID_4_);stroke-width:0.217195" />
    <path
       class="st5"
       d="m 149.07572,30.425244 -1.65068,-3.605432 1.75928,-0.325796 1.15113,2.714934 1.88959,-2.584617 h 2.01992 l -3.12761,4.039824 1.6724,3.627153 h -1.91131 l -1.04254,-2.215387 -1.84615,2.215387 h -2.01992 z"
       id="path12"
       style="fill:url(#SVGID_5_);stroke-width:0.217195" />
    <path
       class="st6"
       d="m 160.02235,34.29131 h -1.60725 v -0.847056 c -0.65158,0.586422 -1.47693,0.999094 -2.60634,0.999094 -1.32489,0 -1.78099,-0.716739 -1.78099,-1.737562 0,-0.260633 0.0217,-0.521267 0.0869,-0.803614 l 0.39095,-2.237108 c 0.34751,-1.954754 0.71674,-3.192769 3.71403,-3.192769 0.28236,0 0.82534,0.04343 1.25974,0.152038 l 0.54299,-3.105885 1.93303,-0.260634 z m -0.80363,-6.124895 c -0.34751,-0.08687 -0.84706,-0.08687 -1.1077,-0.08687 -1.21628,0 -1.52036,0.477826 -1.69412,1.49864 l -0.47782,2.693222 c -0.0217,0.08688 -0.0217,0.152038 -0.0217,0.195471 0,0.282355 0.19547,0.412672 0.54298,0.412672 0.80363,0 1.73756,-0.651585 2.12851,-1.151131 z"
       id="path14"
       style="fill:url(#linearGradient1);stroke-width:0.217195" />
    <path
       class="st7"
       d="m 163.88841,23.496727 1.93303,-0.260634 -0.69502,3.909508 c 0.84706,-0.477826 1.65068,-0.673306 2.41086,-0.673306 1.32489,0 1.781,0.716747 1.781,1.737562 0,0.260634 -0.0217,0.521267 -0.0869,0.803622 l -0.36923,2.237109 c -0.41267,2.302262 -1.19457,3.19276 -3.95294,3.19276 -0.71674,0 -2.1068,-0.238913 -2.86698,-0.499547 z m 0.23891,9.252501 c 0.34751,0.06518 0.71675,0.108596 1.1077,0.108596 1.21629,0 1.52036,-0.499547 1.69412,-1.49864 l 0.47783,-2.693222 c 0.0217,-0.08687 0.0217,-0.15203 0.0217,-0.195471 0,-0.282355 -0.19548,-0.412672 -0.54299,-0.412672 -0.58642,0 -1.39004,0.260634 -2.06335,0.716747 z"
       id="path16"
       style="fill:url(#linearGradient2);stroke-width:0.217195" />
    <g
       id="g7"
       transform="matrix(0.3602973,0,0,0.3602973,115.787,44.282578)">&#10;	<path
   class="st0"
   d="m 28.7,131.5 c -0.3,7.9 -6.6,14.1 -14.4,14.1 C 6.1,145.6 0,139 0,130.9 c 0,-8.1 6.6,-14.7 14.7,-14.7 3.6,0 7.2,1.6 10.2,4.4 l -2.3,2.9 c -2.3,-2 -5.1,-3.4 -7.9,-3.4 -5.9,0 -10.8,4.8 -10.8,10.8 0,6.1 4.6,10.8 10.4,10.8 5.2,0 9.3,-3.8 10.2,-8.8 H 12.6 v -3.5 h 16.1 z"
   id="path1-7"
   sodipodi:nodetypes="ssssccssscccccs"
   style="fill:#565656" />
&#10;	<path
   class="st0"
   d="m 42.3,129.5 h -2.2 c -2.4,0 -4.4,2 -4.4,4.4 v 11.4 H 31.8 V 125.7 H 35 v 1.6 c 1.1,-1.1 2.7,-1.6 4.6,-1.6 h 4.2 z"
   id="path2-0"
   sodipodi:nodetypes="csscccccscc"
   style="fill:#565656" />
&#10;	<path
   class="st0"
   d="m 63.7,145.3 h -3.4 v -2.5 c -2.6,2.5 -6.6,3.7 -10.7,1.9 -3,-1.3 -5.3,-4.1 -5.9,-7.4 -1.2,-6.3 3.7,-11.9 9.9,-11.9 2.6,0 5,1.1 6.7,2.8 v -2.5 h 3.4 z m -4,-8.3 c 0.9,-4 -2.1,-7.6 -6,-7.6 -3.4,0 -6.1,2.8 -6.1,6.1 0,3.8 3.3,6.7 7.2,6.1 2.3,-0.4 4.3,-2.3 4.9,-4.6 z"
   id="path3-61"
   sodipodi:nodetypes="cccccsccccccsscc"
   style="fill:#565656" />
&#10;	<path
   class="st0"
   d="m 71.5,124.7 v 1.1 h 6.2 v 3.4 h -6.2 v 16.1 h -3.8 v -20.5 c 0,-4.3 3.1,-6.8 7,-6.8 h 4.7 l -1.6,3.7 h -3.1 c -1.8,-0.1 -3.2,1.3 -3.2,3 z"
   id="path4-7"
   sodipodi:nodetypes="sccccccsscccs"
   style="fill:#565656" />
&#10;	<path
   class="st0"
   d="m 98.5,145.3 h -3.3 v -2.5 c -2.6,2.5 -6.6,3.7 -10.7,1.9 -3,-1.3 -5.3,-4.1 -5.9,-7.4 -1.2,-6.3 3.7,-11.9 9.9,-11.9 2.6,0 5,1.1 6.7,2.8 v -2.5 h 3.4 v 19.6 z m -4,-8.3 c 0.9,-4 -2.1,-7.6 -6,-7.6 -3.4,0 -6.1,2.8 -6.1,6.1 0,3.8 3.3,6.7 7.2,6.1 2.4,-0.4 4.3,-2.3 4.9,-4.6 z"
   id="path5-1"
   sodipodi:nodetypes="cccccsccccccsscc"
   style="fill:#565656" />
&#10;	<path
   class="st0"
   d="m 119.4,133.8 v 11.5 h -3.9 v -11.6 c 0,-2.4 -2,-4.4 -4.4,-4.4 -2.5,0 -4.4,2 -4.4,4.4 v 11.6 h -3.9 v -19.6 h 3.2 v 1.7 c 1.4,-1.3 3.3,-2 5.2,-2 4.6,0.1 8.2,3.8 8.2,8.4 z"
   id="path6-5"
   sodipodi:nodetypes="sccsssccccccs"
   style="fill:#565656" />
&#10;	<path
   class="st0"
   d="m 142.4,145.3 h -3.3 v -2.5 c -2.6,2.5 -6.6,3.7 -10.7,1.9 -3,-1.3 -5.3,-4.1 -5.9,-7.4 -1.2,-6.3 3.7,-11.9 9.9,-11.9 2.6,0 5,1.1 6.7,2.8 v -2.5 h 3.4 v 19.6 z m -4,-8.3 c 0.9,-4 -2.1,-7.6 -6,-7.6 -3.4,0 -6.1,2.8 -6.1,6.1 0,3.8 3.3,6.7 7.2,6.1 2.4,-0.4 4.3,-2.3 4.9,-4.6 z"
   id="path7-5"
   sodipodi:nodetypes="cccccsccccccsscc"
   style="fill:#565656" />
&#10;</g>
    <path
       class="st1"
       d="m 110.69256,89.446791 c -0.0434,-0.412672 -0.1086,-0.890498 -0.23891,-1.411774 -0.13032,-0.521267 -0.34751,-1.085985 -0.62987,-1.694128 -0.30407,-0.58643 -0.6733,-1.216302 -1.17285,-1.802732 -0.19548,-0.238913 -0.41267,-0.456113 -0.62986,-0.695026 0.34751,-1.36834 -0.41267,-2.562914 -0.41267,-2.562914 -1.32489,-0.08687 -2.15024,0.412672 -2.4543,0.629872 -0.0434,-0.02175 -0.10861,-0.04342 -0.15204,-0.06518 -0.2172,-0.08688 -0.45612,-0.173758 -0.69503,-0.260633 -0.23891,-0.06518 -0.47782,-0.152038 -0.71674,-0.195472 -0.23893,-0.06518 -0.49956,-0.108604 -0.76019,-0.152037 -0.0434,0 -0.0869,-0.02175 -0.13032,-0.02175 -0.5647,-1.824453 -2.21539,-2.606355 -2.21539,-2.606355 -1.88959,1.216302 -2.25882,2.845268 -2.25882,2.845268 0,0 0,0.04342 -0.02175,0.08688 -0.108596,0.02175 -0.19548,0.06518 -0.304076,0.08688 -0.130317,0.04343 -0.282355,0.08688 -0.412672,0.152038 -0.130317,0.06518 -0.282346,0.108596 -0.412663,0.173751 -0.282355,0.130317 -0.542989,0.260633 -0.825343,0.412671 -0.260634,0.152038 -0.521268,0.304076 -0.760181,0.477826 -0.04343,-0.02167 -0.06518,-0.04342 -0.06518,-0.04342 -2.541176,-0.977381 -4.800005,0.195479 -4.800005,0.195479 -0.195471,2.714951 1.020814,4.409079 1.259727,4.713155 -0.06518,0.173759 -0.108596,0.325796 -0.17375,0.499547 -0.195479,0.608159 -0.325796,1.238023 -0.412672,1.889616 -0.02175,0.08687 -0.02175,0.195471 -0.04343,0.282354 -2.345704,1.151132 -3.040722,3.54029 -3.040722,3.54029 1.954753,2.25883 4.257016,2.38915 4.257016,2.38915 v 0 c 0.282355,0.52127 0.629864,1.02082 0.999094,1.47693 0.152038,0.19547 0.325796,0.36923 0.499547,0.5647 -0.716739,2.041643 0.108604,3.757483 0.108604,3.757483 2.193667,0.0869 3.627153,-0.95566 3.93122,-1.19458 l 0.651585,0.19548 c 0.673305,0.17375 1.368331,0.28235 2.041641,0.30407 h 0.52126 0.0869 0.0652 0.1086 0.1086 v 0 c 1.02081,1.47693 2.84525,1.6724 2.84525,1.6724 1.28145,-1.36832 1.36833,-2.69321 1.36833,-2.99729 v 0 -0.0217 -0.0434 0 -0.0652 c 0.26064,-0.19547 0.52127,-0.39095 0.7819,-0.60814 0.52127,-0.45611 0.95566,-0.9991 1.34661,-1.5638 0.0434,-0.0434 0.0652,-0.1086 0.10859,-0.15204 1.45521,0.0869 2.47603,-0.91222 2.47603,-0.91222 -0.23892,-1.52037 -1.10769,-2.25884 -1.28145,-2.38915 v 0 l -0.0218,-0.0218 -0.0218,-0.0217 v 0 l -0.0217,-0.0218 c 0,-0.0869 0.0217,-0.17376 0.0217,-0.28236 0.0218,-0.17376 0.0218,-0.32579 0.0218,-0.49954 v -0.13032 -0.0652 -0.0218 -0.0434 -0.10859 -0.13032 -0.13032 c 0,-0.0434 0,-0.0869 -0.0218,-0.13032 l -0.0217,-0.13032 -0.0218,-0.13032 c -0.0217,-0.17376 -0.0652,-0.32579 -0.0869,-0.49955 -0.15204,-0.651595 -0.41267,-1.281459 -0.73847,-1.824448 -0.34751,-0.564709 -0.76018,-1.042543 -1.23801,-1.476927 -0.47783,-0.41268 -0.9991,-0.760189 -1.5638,-0.99911 -0.56471,-0.260634 -1.12942,-0.412664 -1.71584,-0.477835 -0.28236,-0.04342 -0.58644,-0.04342 -0.86878,-0.04342 h -0.10861 -0.0217 -0.0434 -0.0434 -0.10859 -0.1086 c -0.15204,0.02175 -0.30408,0.04342 -0.43439,0.06518 -0.58642,0.108596 -1.12941,0.325788 -1.60724,0.608143 -0.477833,0.282355 -0.890504,0.651585 -1.238013,1.064264 -0.347509,0.412672 -0.608143,0.847064 -0.781902,1.324899 -0.173758,0.456105 -0.282354,0.95566 -0.304075,1.411773 v 0.347511 0.0869 0.0869 c 0,0.0652 0,0.1086 0.02175,0.17376 0.02175,0.23891 0.06518,0.4561 0.130317,0.67331 0.130317,0.43439 0.325797,0.82534 0.586431,1.17286 0.260633,0.3475 0.542988,0.60814 0.868776,0.82533 0.325796,0.2172 0.651586,0.36924 0.999096,0.47784 0.34751,0.1086 0.6733,0.15203 0.97738,0.13032 h 0.10859 0.0652 0.0652 0.1086 0.0217 0.0217 0.0652 c 0.0434,0 0.0869,-0.0217 0.10861,-0.0217 0.0434,0 0.0652,-0.0218 0.10859,-0.0218 0.0652,-0.0217 0.15204,-0.0434 0.21719,-0.0652 0.13032,-0.0434 0.26064,-0.10859 0.39095,-0.15203 0.13032,-0.0652 0.23892,-0.13032 0.3258,-0.19548 0.0217,-0.0218 0.0652,-0.0434 0.0869,-0.0652 0.1086,-0.0869 0.13032,-0.23892 0.0434,-0.34752 -0.0869,-0.0869 -0.21721,-0.10859 -0.32581,-0.0652 -0.0217,0.0217 -0.0434,0.0217 -0.0869,0.0434 -0.0869,0.0434 -0.19548,0.0869 -0.28235,0.1086 -0.1086,0.0217 -0.21719,0.0652 -0.3258,0.0869 -0.0652,0 -0.10859,0.0217 -0.17375,0.0217 h -0.0869 -0.0869 -0.0869 -0.10859 c 0,0 -0.0217,0 0,0 h -0.0217 -0.0217 -0.0434 c -0.0217,0 -0.0652,0 -0.0869,-0.0217 -0.23892,-0.0434 -0.49955,-0.1086 -0.73846,-0.2172 -0.23892,-0.10859 -0.47784,-0.26062 -0.67331,-0.4561 -0.2172,-0.19547 -0.390949,-0.41267 -0.542987,-0.67331 -0.152038,-0.26063 -0.238913,-0.54299 -0.282355,-0.82534 -0.02175,-0.15204 -0.04342,-0.30408 -0.02175,-0.45611 v -0.13032 c 0,0.0218 0,0 0,0 v -0.0217 -0.0218 -0.0652 c 0,-0.0869 0.02175,-0.15203 0.04343,-0.238914 0.108596,-0.651593 0.434392,-1.281456 0.933942,-1.759291 0.13031,-0.130317 0.26063,-0.238921 0.41267,-0.325796 0.15203,-0.108596 0.30407,-0.19548 0.4561,-0.260634 0.15204,-0.06518 0.3258,-0.130317 0.49955,-0.173759 0.17376,-0.04343 0.34752,-0.08688 0.52127,-0.08688 0.0869,0 0.17376,-0.02175 0.26063,-0.02175 h 0.0652 0.0652 0.0434 c 0.0218,0 0,0 0,0 h 0.0218 0.0652 c 0.19548,0.02175 0.39095,0.04342 0.56472,0.08688 0.36923,0.08688 0.73846,0.2172 1.08598,0.412671 0.69502,0.390959 1.28145,0.97739 1.62896,1.694129 0.17375,0.347517 0.30407,0.738464 0.36923,1.151144 0.0217,0.10859 0.0217,0.19548 0.0434,0.30407 v 0.0652 0.0652 0.0652 0.0652 0.0652 0.0652 0.17375 c 0,0.1086 -0.0217,0.2172 -0.0217,0.32579 -0.0218,0.1086 -0.0218,0.21719 -0.0434,0.3258 l -0.0652,0.32579 c -0.0434,0.21719 -0.13031,0.41266 -0.19548,0.62985 -0.15203,0.41268 -0.36923,0.80363 -0.62986,1.15114 -0.52127,0.71675 -1.23801,1.30317 -2.04163,1.67241 -0.41268,0.17375 -0.82535,0.32579 -1.25974,0.39095 -0.2172,0.0434 -0.43439,0.0652 -0.65158,0.0652 h -0.0434 -0.0434 -0.0652 -0.1086 -0.0652 c 0.0218,0 0,0 0,0 h -0.0217 c -0.10859,0 -0.23891,0 -0.34751,-0.0217 -0.47782,-0.0434 -0.93393,-0.13032 -1.39004,-0.26064 -0.456113,-0.13032 -0.890506,-0.30407 -1.303169,-0.52127 -0.825343,-0.43438 -1.563803,-1.06425 -2.150233,-1.78099 -0.282355,-0.36923 -0.542989,-0.76019 -0.760181,-1.17285 -0.217192,-0.41267 -0.36923,-0.84707 -0.499547,-1.28145 -0.130317,-0.43439 -0.195479,-0.8905 -0.2172,-1.34662 v -0.08688 -0.02175 -0.02175 -0.04343 -0.06518 -0.02175 -0.02175 -0.04342 -0.108605 -0.02167 0 -0.04343 -0.173758 c 0,-0.217192 0.02175,-0.456105 0.06518,-0.695018 0.02175,-0.238921 0.06518,-0.456122 0.108596,-0.695035 0.04342,-0.238913 0.108596,-0.456113 0.173758,-0.695026 0.130317,-0.456113 0.282355,-0.890506 0.477826,-1.303177 0.390951,-0.825335 0.890498,-1.563812 1.476928,-2.150234 0.152038,-0.152038 0.304067,-0.282354 0.477826,-0.412671 0.06518,-0.06518 0.217192,-0.19548 0.390951,-0.304084 0.173758,-0.108596 0.347509,-0.217192 0.542988,-0.304067 0.08688,-0.04343 0.173759,-0.08688 0.282355,-0.130317 0.04342,-0.02175 0.08688,-0.04343 0.152038,-0.06518 0.04342,-0.02175 0.08687,-0.04343 0.152029,-0.06518 0.19548,-0.08688 0.390951,-0.152038 0.586431,-0.217201 0.04342,-0.02175 0.108596,-0.02175 0.152037,-0.04342 0.04343,-0.02175 0.108597,-0.02175 0.152038,-0.04342 0.108596,-0.02175 0.195469,-0.04343 0.304069,-0.08688 0.0434,-0.02175 0.1086,-0.02175 0.15204,-0.04343 0.0434,0 0.10859,-0.02175 0.15203,-0.02175 0.0434,0 0.1086,-0.02175 0.15204,-0.02175 l 0.0869,-0.02175 0.0869,-0.02175 c 0.0434,0 0.10861,-0.02175 0.15204,-0.02175 0.0652,0 0.1086,-0.02175 0.17376,-0.02175 0.0434,0 0.13032,-0.02175 0.17376,-0.02175 0.0434,0 0.0652,0 0.10859,-0.02175 h 0.0652 0.0434 0.0434 c 0.0652,0 0.1086,0 0.17375,-0.02175 h 0.0869 c 0,0 0.0217,0 0,0 h 0.0217 0.0434 0.15204 0.58642 c 0.39095,0.02175 0.7819,0.06518 1.15115,0.130317 0.73846,0.130317 1.4552,0.36923 2.08507,0.695018 0.62986,0.304076 1.21628,0.695035 1.69412,1.107706 0.0217,0.02167 0.0652,0.04342 0.0869,0.08688 0.0218,0.02175 0.0652,0.04343 0.0869,0.08688 0.0652,0.04342 0.1086,0.108596 0.17376,0.152037 0.0652,0.04343 0.10859,0.108596 0.17376,0.152038 0.0434,0.06518 0.10859,0.108596 0.15203,0.173767 0.2172,0.217192 0.41267,0.456105 0.58643,0.673297 0.34751,0.456105 0.62986,0.912219 0.84705,1.346611 0.0218,0.02175 0.0218,0.04342 0.0434,0.08687 0.0217,0.02175 0.0217,0.04343 0.0434,0.08688 0.0218,0.04342 0.0434,0.108596 0.0869,0.152038 0.0217,0.04342 0.0434,0.108596 0.0652,0.152029 0.0217,0.04342 0.0434,0.108613 0.0652,0.152046 0.0869,0.19548 0.15203,0.390951 0.21719,0.58643 0.1086,0.304068 0.17376,0.564701 0.23892,0.78191 0.0218,0.08688 0.1086,0.152038 0.19547,0.152038 0.1086,0 0.17376,-0.08688 0.17376,-0.19548 -0.0217,-0.260642 -0.0217,-0.542996 -0.0434,-0.868785 z"
       id="path8-94"
       sodipodi:nodetypes="csccccccccccccccscccccccccccscccccccccccscscccccccccsccccccsccccccsccccccccscccccccssccccscsssscccccccsscscccccsccscccccccscscsccccccscccssssccsccccscccccccccscssccccsccccccscsscsscccccccccccccscscsscscccccscccscccssscccscccccccsccccscccccscscccscc"
       style="fill:url(#SVGID_1_-1);stroke-width:0.217195" />
    <path
       d="m 130.46604,166.66104 c -0.0265,-0.3175 -0.0265,-0.66146 -0.0529,-1.05833 z"
       style="fill:url(#linearGradient3);stroke-width:0.264583"
       id="path1" />
    <path
       d="m 82.855738,100.64931 c -0.02172,-0.26063 -0.02172,-0.54299 -0.04344,-0.868773 z"
       style="fill:url(#linearGradient4);stroke-width:0.217195"
       id="path1-6" />
    <g
       id="g3"
       transform="matrix(0.8231163,0,0,0.8231163,-4.7144255,-1.6370999)">
      <path
         fill="#2d3487"
         d="M 67.6,27.8 51.6,20 v 100.8 l 32.1,16 v -17.9 l -16.1,-8 z"
         id="path2" />
      <path
         fill="#00a89e"
         d="m 83.7,118.9 15.8,8 V 26.1 L 67.6,10.1 V 27.8 L 83.7,36 Z"
         id="path3" />
    </g>
    <g
       id="g13"
       transform="matrix(0.11308058,0,0,0.11308058,78.655331,9.9605727)">&#10;	<g
   id="g11"
   transform="translate(6.6298693,-2.6519476)">&#10;		<path
   class="st1"
   d="m 261.6,470 -15.9,-69.2 c -0.6,-2.8 -3.5,-5.8 -6.3,-6.7 l -72.6,-22.4 c -2.8,-0.9 -6.8,0 -8.9,2 L 106,422 c -2.2,2 -3.3,6 -2.8,8.7 l 16.9,74 c 0.6,2.8 3.5,5.8 6.3,6.7 l 67.8,20.9 c 2.8,0.9 6.8,0 8.9,-2 l 55.7,-51.6 c 2.4,-1.9 3.5,-5.8 2.8,-8.7 z m -86.1,-82.5 48.4,14.8 c 1.9,0.6 1.9,1.5 0,1.9 l -25.5,5.8 c -1.9,0.4 -4.7,-0.4 -6,-1.9 L 174.6,389 c -1.6,-1.4 -1,-2.1 0.9,-1.5 z m 17.9,33.6 12.2,53.4 c 0.4,1.9 -0.7,3.1 -2.6,2.5 l -52.2,-16.1 c -1.9,-0.6 -2.2,-2.2 -0.9,-3.5 L 190,420.2 c 1.5,-1.4 3,-1 3.4,0.9 z m -73.9,5.8 42.5,-39.4 c 1.5,-1.3 3.8,-1.3 5.1,0.1 l 21.4,23 c 1.3,1.5 1.3,3.8 -0.1,5.1 l -42.5,39.4 c -1.5,1.3 -3.8,1.3 -5.1,-0.1 l -21.4,-23 c -1.5,-1.5 -1.3,-3.8 0.1,-5.1 z m 10.3,62.8 -11.3,-49.3 c -0.4,-1.9 0.3,-2.3 1.6,-0.9 l 17.9,19.2 c 1.3,1.5 2,4.2 1.5,6.1 l -7.7,25 c -0.7,1.8 -1.5,1.8 -2,-0.1 z m 66.6,26.4 c -0.6,1.9 -2.6,2.9 -4.5,2.3 l -55.4,-17 c -1.9,-0.6 -2.9,-2.6 -2.3,-4.5 l 9.2,-30 c 0.6,-1.9 2.6,-2.9 4.5,-2.3 l 55.4,17 c 1.9,0.6 2.9,2.6 2.3,4.5 z m 44.7,-38 -37.1,34.5 c -1.5,1.3 -2.2,0.9 -1.6,-1 l 7.7,-25 c 0.6,-1.9 2.6,-3.8 4.5,-4.2 l 25.5,-5.8 c 2.2,-0.5 2.4,0.2 1,1.5 z m 4.1,-7.4 -30.5,7 c -1.9,0.4 -3.9,-0.7 -4.4,-2.8 l -12.9,-56.4 c -0.4,-1.9 0.7,-3.9 2.8,-4.4 l 30.5,-7 c 1.9,-0.4 3.9,0.7 4.4,2.8 l 12.9,56.4 c 0.4,2.1 -0.9,4 -2.8,4.4 z"
   id="path1-4"
   style="fill:#292933" />
&#10;		<g
   id="g10">&#10;			<g
   id="g9">&#10;				<path
   class="st1"
   d="m 346.4,439.9 -6.3,34.9 c -0.1,0.7 -0.3,1.5 -0.3,1.9 0,1 0.6,1.5 2,1.5 3.5,0 7.3,-1.5 10.9,-2.9 l 4.1,14.1 c -5.8,3.2 -14.1,5.8 -22.3,5.8 -10.2,0 -15.7,-4.9 -15.7,-13.2 0,-1 0.1,-2 0.3,-3.1 l 6.8,-39 h -10.3 l 2.9,-16.3 h 10.3 l 2.9,-16.9 20.8,-2.9 -3.5,19.6 h 16.7 l -4.1,16.3 h -15.4 z"
   id="path2-3"
   style="fill:#292933" />
&#10;				<path
   class="st1"
   d="m 371.1,448.7 c 2.9,-16.1 10,-26.5 32.3,-26.5 13.2,0 23.3,5.8 23.3,17.6 0,13.7 -7,19.9 -24.3,25.2 -8.4,2.6 -8.6,2.6 -14.7,4.2 l -0.9,4.9 c -0.4,2.6 -0.1,4.9 3.6,4.9 7.3,0 18,-3.6 27.5,-7.7 l 3.9,14.4 c -8.4,5.4 -21.8,9.6 -34.2,9.6 -14.5,0 -20.7,-6.4 -20.7,-18.3 0,-2.6 0.3,-5.5 0.9,-8.4 z m 36.8,-6.8 c 0,-2.5 -2.2,-4.1 -6,-4.1 -7.3,0 -9.5,4.2 -10.5,9.9 l -0.9,4.9 c 3.5,-0.9 5.1,-1.2 9.2,-2.5 5.6,-1.4 8.2,-4 8.2,-8.2 z"
   id="path3-6"
   style="fill:#292933" />
&#10;				<path
   class="st1"
   d="m 448.8,395.1 20.8,-2.9 -17.9,101.5 h -20.2 z"
   id="path4-5"
   style="fill:#292933" />
&#10;				<path
   class="st1"
   d="m 474.5,448.7 c 2.9,-16.1 10,-26.5 32.3,-26.5 13.2,0 23.3,5.8 23.3,17.6 0,13.7 -7,19.9 -24.3,25.2 -8.4,2.6 -8.6,2.6 -14.7,4.2 l -0.9,4.9 c -0.4,2.6 -0.1,4.9 3.6,4.9 7.3,0 18,-3.6 27.5,-7.7 l 3.9,14.4 c -8.4,5.4 -21.8,9.6 -34.2,9.6 -14.5,0 -20.7,-6.4 -20.7,-18.3 0,-2.6 0.3,-5.5 0.9,-8.4 z m 36.8,-6.8 c 0,-2.5 -2.2,-4.1 -6,-4.1 -7.3,0 -9.5,4.2 -10.5,9.9 l -0.9,4.9 c 3.5,-0.9 5.1,-1.2 9.2,-2.5 5.6,-1.4 8.2,-4 8.2,-8.2 z"
   id="path5"
   style="fill:#292933" />
&#10;				<path
   class="st1"
   d="m 574.1,486.2 c -6,3.5 -12.8,6.1 -20.4,6.1 -15.3,0 -19.1,-9.3 -16.3,-25 l 2.9,-16 c 3.2,-17.7 7.6,-29.1 37.5,-29.1 7.3,0 18.3,1.3 27.2,4.2 l -13.8,77.7 c -2.8,15.7 -9.5,19.5 -28.2,19.5 -8.3,0 -22.5,-2.6 -31.3,-5.5 l 3.6,-14.3 c 10.8,2.6 19.5,4.1 27.9,4.1 6.1,0 7.4,-2.3 8.3,-7 z m -16.8,-16.4 c -0.7,3.8 0.3,5.5 3.9,5.5 4.5,0 11.6,-2.9 15.9,-5.5 l 5.4,-30.2 c -2.5,-0.3 -5.1,-0.4 -7.9,-0.4 -10.5,0 -12.5,5.2 -13.8,11.9 z"
   id="path6-9"
   style="fill:#292933" />
&#10;				<path
   class="st1"
   d="m 658.3,440.6 c -8.9,4.9 -12.2,6.7 -20.2,11.8 l -7.3,41.3 h -20.2 l 11.9,-68.4 17.9,-3.1 -0.4,9.5 c 6.7,-4.1 12.2,-6.8 18.3,-9.5 z"
   id="path7"
   style="fill:#292933" />
&#10;				<path
   class="st1"
   d="m 698.5,493.7 -0.6,-6.1 c -4.9,3.8 -12.2,7.4 -22.3,7.4 -15.3,0 -18.3,-9.2 -15.6,-24.9 l 3.3,-18.9 c 2.9,-16.7 9.5,-29.1 37.1,-29.1 7.3,0 17,1.3 26.8,4.4 l -11.6,67 h -17.2 v 0.2 z m -18.4,-21.3 c -0.6,3.8 0.3,5.2 3.9,5.2 5.2,0 10.8,-3.1 15.4,-6.8 l 5.4,-30.4 c -2.8,-0.6 -5.8,-0.7 -7.9,-0.7 -10.5,0 -11.8,5.2 -13.1,11.9 z"
   id="path8-9"
   style="fill:#292933" />
&#10;				<path
   class="st1"
   d="m 727.1,511.4 c 7,-7.1 8,-10.9 9.2,-17.7 l 9.5,-53.5 h -10 l 2.9,-16.6 h 10 l 1.7,-9.2 c 2.9,-15.6 8.3,-22.3 25.3,-22.3 5.8,0 12.5,1 18,3.1 l -4.2,16 c -3.2,-1.2 -8.7,-2.2 -11.9,-2.2 -4.7,0 -6.1,1.2 -6.7,4.8 l -1.9,9.9 h 18.2 l -4.4,16.6 h -16.7 l -9.7,55.8 c -1.7,9.7 -5.2,16.7 -16.1,27.5 z"
   id="path9"
   style="fill:#292933" />
&#10;			</g>
&#10;		</g>
&#10;	</g>
&#10;	&#10;</g>
  </g>
</svg>
